# xmcd
#
# Track frame offsets:
#	150
#	12777
#	25102
#	37730
#	50920
#	65197
#	78512
#	93365
#	108215
#	120845
#	135570
#	150545
#	163205
#	176365
#	190195
#	204002
#
# Disc length: 2888 seconds
#
# Revision: 1
# Processed by: cddbd v1.4PL0 Copyright (c) Steve Scherf et al.
# Submitted via: dBpowerAMP V4.0
#
DISCID=c00b4610
DTITLE=Carter Family - Sunshine in the Shadows - 1931 - 1932
DYEAR=1900
DGENRE=Country
TTITLE0=Sunshine In The Shadows
TTITLE1=Let The Church Roll On
TTITLE2=Lonesome For You
TTITLE3=Can't Feel At Home
TTITLE4=Why There's A Tear In My Eye
TTITLE5=The Wonderful City
TTITLE6=Jimmy Rodgers Visits The Carter Family
TTITLE7=The Carter Family And Jimmy Rodgers In Texas
TTITLE8=Mid The Green Fields Of Virgina
TTITLE9=The Happiest Day Of All
TTITLE10=Picture On The Wall
TTITLE11=Amber Tresses
TTITLE12=I Never Loved But One
TTITLE13=Tell Me That You Love Me
TTITLE14=Where We'll Never Grow Old
TTITLE15=We Will March Through The Streets Of The City
EXTD=
EXTT0=
EXTT1=
EXTT2=
EXTT3=
EXTT4=
EXTT5=
EXTT6=
EXTT7=
EXTT8=
EXTT9=
EXTT10=
EXTT11=
EXTT12=
EXTT13=
EXTT14=
EXTT15=
PLAYORDER=
